<?xml version="1.0" encoding="UTF-8" standalone="no"?>
<svg
   xmlns:dc="http://purl.org/dc/elements/1.1/"
   xmlns:cc="http://creativecommons.org/ns#"
   xmlns:rdf="http://www.w3.org/1999/02/22-rdf-syntax-ns#"
   xmlns:svg="http://www.w3.org/2000/svg"
   xmlns="http://www.w3.org/2000/svg"
   xmlns:sodipodi="http://sodipodi.sourceforge.net/DTD/sodipodi-0.dtd"
   xmlns:inkscape="http://www.inkscape.org/namespaces/inkscape"
   inkscape:version="1.0 (4035a4fb49, 2020-05-01)"
   sodipodi:docname="logo2.svg"
   xml:space="preserve"
   style="enable-background:new 0 0 178 41;"
   viewBox="0 0 178 41"
   y="0px"
   x="0px"
   id="Layer_1"
   version="1.1"><metadata
   id="metadata59"><rdf:RDF><cc:Work
       rdf:about=""><dc:format>image/svg+xml</dc:format><dc:type
         rdf:resource="http://purl.org/dc/dcmitype/StillImage" /><dc:title></dc:title></cc:Work></rdf:RDF></metadata><defs
   id="defs57" /><sodipodi:namedview
   inkscape:current-layer="g22"
   inkscape:window-maximized="1"
   inkscape:window-y="-8"
   inkscape:window-x="-8"
   inkscape:cy="20.5"
   inkscape:cx="64.911956"
   inkscape:zoom="5.8932584"
   showgrid="false"
   id="namedview55"
   inkscape:window-height="1002"
   inkscape:window-width="1920"
   inkscape:pageshadow="2"
   inkscape:pageopacity="0"
   guidetolerance="10"
   gridtolerance="10"
   objecttolerance="10"
   borderopacity="1"
   bordercolor="#666666"
   pagecolor="#ffffff" />
<style
   id="style2"
   type="text/css">
	.st0{fill:#EE4380;}
	.st1{fill:#EE4380;stroke:#EE4380;stroke-width:0.75;stroke-miterlimit:10;}
</style>
<g
   id="g24">
	<g
   id="g22">
		
		
		
		
		
		<path
   id="path14"
   d="M138.5,30.7c-1,0.4-2.1,0.6-3.2,0.6c-1.9,0-3.5-0.4-4.9-1.2s-2.4-1.9-3.2-3.3c-0.7-1.4-1.1-2.9-1.1-4.5    c0-1.8,0.4-3.4,1.1-4.8s1.8-2.5,3.1-3.3c1.3-0.8,2.8-1.2,4.5-1.2c1.1,0,2.1,0.1,3,0.4c0.9,0.3,1.7,0.7,2.4,1.1l-1.4,3.3    c-1.3-1-2.6-1.5-3.9-1.5c-0.9,0-1.8,0.3-2.6,0.8c-0.8,0.5-1.4,1.2-1.9,2.1c-0.5,0.9-0.7,1.8-0.7,2.9c0,1.2,0.2,2.2,0.7,3    c0.4,0.9,1.1,1.5,1.9,2s1.8,0.7,2.8,0.7c0.9,0,1.7-0.1,2.4-0.4s1.2-0.6,1.7-1l1.5,3.2C140.2,29.9,139.5,30.3,138.5,30.7z"
   class="st0" />
		<path
   id="path16"
   d="M143.8,22.7c0.5-0.9,1.2-1.5,2.2-2c0.9-0.5,2-0.7,3.2-0.7c1.2,0,2.2,0.2,3.1,0.7c0.9,0.5,1.6,1.2,2.1,2    c0.5,0.9,0.7,1.8,0.7,2.9s-0.2,2.1-0.7,2.9c-0.5,0.9-1.2,1.6-2.1,2.1c-0.9,0.5-2,0.7-3.2,0.7c-1.2,0-2.2-0.2-3.1-0.7    c-0.9-0.5-1.6-1.1-2.1-2s-0.8-1.9-0.8-3.1C143,24.5,143.3,23.5,143.8,22.7z M147.2,27.7c0.5,0.6,1.1,0.8,1.8,0.8    c0.8,0,1.4-0.3,1.9-0.8c0.5-0.6,0.7-1.3,0.7-2.1s-0.2-1.6-0.7-2.1c-0.5-0.6-1.1-0.8-1.9-0.8c-0.7,0-1.4,0.3-1.8,0.8    c-0.5,0.6-0.7,1.3-0.7,2.1C146.5,26.5,146.7,27.2,147.2,27.7z"
   class="st0" />
		<path
   id="path18"
   d="M158.5,15.4c0.4-0.3,0.8-0.5,1.3-0.5c0.5,0,0.9,0.2,1.3,0.5c0.4,0.3,0.6,0.7,0.6,1.2s-0.2,0.9-0.6,1.2    c-0.4,0.3-0.8,0.5-1.3,0.5c-0.5,0-0.9-0.2-1.3-0.5c-0.4-0.3-0.6-0.7-0.6-1.2S158.1,15.8,158.5,15.4z M161.4,20.4V31H158V20.4    H161.4z"
   class="st0" />
		<path
   id="path20"
   d="M175,20.8c0.7,0.6,1,1.4,1,2.3v8h-3.4v-6.7c0-1-0.6-1.6-1.6-1.6c-0.8,0-1.4,0.4-1.9,1.1    c-0.5,0.7-0.7,1.7-0.7,2.8V31h-3.4V20.4h3.1l0.2,1.7c0.4-0.7,0.9-1.2,1.6-1.6c0.7-0.4,1.5-0.6,2.4-0.6    C173.5,19.9,174.4,20.2,175,20.8z"
   class="st0" />
	<text
   id="text63"
   y="28.337463"
   x="103.67779"
   style="font-style:normal;font-weight:normal;font-size:40px;line-height:1.25;font-family:sans-serif;fill:#000000;fill-opacity:1;stroke:none"
   xml:space="preserve"><tspan
     y="28.337463"
     x="103.67779"
     id="tspan61"
     sodipodi:role="line" /></text><text
   transform="scale(0.98688597,1.0132883)"
   id="text890"
   y="29.409697"
   x="44.743511"
   style="font-style:normal;font-weight:normal;font-size:25.4137px;line-height:1.25;font-family:sans-serif;fill:#ee4380;fill-opacity:1;stroke:none;stroke-width:0.635344"
   xml:space="preserve"><tspan
     style="font-style:normal;font-variant:normal;font-weight:bold;font-stretch:normal;font-family:Arial;-inkscape-font-specification:'Arial Bold';stroke-width:0.635344"
     y="29.409697"
     x="44.743511"
     id="tspan888"
     sodipodi:role="line">Mayor</tspan></text></g>
</g>
<path
   id="path26"
   d="M6.9,18.9c-0.3,0-0.6-0.3-0.6-0.6c0,0,0-0.1,0-0.1c1.1-6.1,5.8-10.9,11.9-11.9c0.3-0.1,0.7,0.2,0.7,0.5  c0.1,0.3-0.2,0.7-0.5,0.7c-5.6,1-9.9,5.4-10.9,10.9C7.4,18.7,7.2,18.9,6.9,18.9z"
   class="st1" />
<path
   id="path28"
   d="M23.2,35.3c-0.3,0-0.6-0.3-0.6-0.6c0-0.3,0.2-0.6,0.5-0.6c5.6-1,9.9-5.4,10.9-10.9c0.1-0.3,0.4-0.6,0.7-0.5  c0.3,0.1,0.6,0.4,0.5,0.7c0,0,0,0,0,0c-1.1,6.1-5.8,10.9-11.9,11.9C23.3,35.3,23.2,35.3,23.2,35.3z"
   class="st1" />
<circle
   id="circle30"
   r="0.6"
   cy="20.8"
   cx="6.7"
   class="st1" />
<circle
   id="circle32"
   r="0.6"
   cy="20.8"
   cx="34.9"
   class="st1" />
<path
   id="path34"
   d="M20.8,39.1c-10.2,0-18.4-8.2-18.4-18.4c0-4.9,1.9-9.6,5.4-13c7.2-7.2,18.8-7.2,26,0s7.2,18.8,0,26  C30.3,37.2,25.6,39.2,20.8,39.1z M20.8,3.6c-9.5,0-17.2,7.7-17.2,17.2c0,4.6,1.8,8.9,5,12.1c6.7,6.7,17.6,6.7,24.3,0  s6.7-17.6,0-24.3C29.7,5.4,25.3,3.6,20.8,3.6z"
   class="st1" />
<g
   id="g40">
	<path
   id="path36"
   d="M14.5,14.6h12.3c0.3,0,0.6,0.3,0.6,0.6c0,0.3-0.3,0.6-0.6,0.6H15.2v4.3c0,1,0.8,1.8,1.8,1.8h7.4   c0.3,0,0.6,0.3,0.6,0.6s-0.3,0.6-0.6,0.6H17c-1.7,0-3.1-1.4-3.1-3.1v-4.9C13.9,14.9,14.2,14.6,14.5,14.6z"
   class="st1" />
	<path
   id="path38"
   d="M24.3,19.5H17c-0.3,0-0.6-0.3-0.6-0.6s0.3-0.6,0.6-0.6h7.4c1.7,0,3.1,1.4,3.1,3.1v4.9c0,0.3-0.3,0.6-0.6,0.6   H14.5c-0.3,0-0.6-0.3-0.6-0.6s0.3-0.6,0.6-0.6h11.6v-4.3C26.2,20.4,25.4,19.5,24.3,19.5z"
   class="st1" />
</g>
<g
   id="g46">
	<path
   id="path42"
   d="M19.8,14.7L19.8,14.7c-0.3,0-0.5-0.2-0.5-0.5v-1.4c0-0.3,0.2-0.5,0.5-0.5l0,0c0.3,0,0.5,0.2,0.5,0.5v1.4   C20.3,14.5,20.1,14.7,19.8,14.7z"
   class="st0" />
	<path
   id="path44"
   d="M21.5,14.7L21.5,14.7c-0.3,0-0.5-0.2-0.5-0.5v-1.4c0-0.3,0.2-0.5,0.5-0.5l0,0c0.3,0,0.5,0.2,0.5,0.5v1.4   C22,14.5,21.8,14.7,21.5,14.7z"
   class="st0" />
</g>
<g
   id="g52">
	<path
   id="path48"
   d="M19.8,28.9L19.8,28.9c-0.3,0-0.5-0.2-0.5-0.5V27c0-0.3,0.2-0.5,0.5-0.5l0,0c0.3,0,0.5,0.2,0.5,0.5v1.4   C20.3,28.7,20.1,28.9,19.8,28.9z"
   class="st0" />
	<path
   id="path50"
   d="M21.5,28.9L21.5,28.9c-0.3,0-0.5-0.2-0.5-0.5V27c0-0.3,0.2-0.5,0.5-0.5l0,0c0.3,0,0.5,0.2,0.5,0.5v1.4   C22,28.7,21.8,28.9,21.5,28.9z"
   class="st0" />
</g>
</svg>
